<?xml version="1.0" encoding="utf-8"?>
<!-- Generator: Adobe Illustrator 15.1.0, SVG Export Plug-In . SVG Version: 6.00 Build 0)  -->
<svg version="1.2" baseProfile="tiny" id="Layer_1" xmlns="http://www.w3.org/2000/svg" xmlns:xlink="http://www.w3.org/1999/xlink"
	 x="0px" y="0px" width="324px" height="98.641px" viewBox="0 0 324 98.641" xml:space="preserve">
<g>
	<path fill="#C4C4C4" d="M53.313,30.919v4.904c0,5.908-2.954,9.283-8.651,9.283c-5.696,0-8.65-3.375-8.65-9.283V16.626
		c0-5.908,2.954-9.283,8.65-9.283c5.697,0,8.651,3.375,8.651,9.283v3.586h-5.486v-3.957c0-2.637-1.161-3.639-3.006-3.639
		c-1.847,0-3.006,1.002-3.006,3.639v19.938c0,2.637,1.159,3.586,3.006,3.586c1.846,0,3.006-0.949,3.006-3.586v-5.273H53.313z"/>
	<path fill="#C4C4C4" d="M56.375,16.626c0-5.908,3.112-9.283,8.809-9.283c5.696,0,8.809,3.375,8.809,9.283v19.197
		c0,5.908-3.113,9.283-8.809,9.283c-5.697,0-8.809-3.375-8.809-9.283V16.626z M62.177,36.192c0,2.637,1.16,3.641,3.006,3.641
		c1.846,0,3.006-1.004,3.006-3.641V16.255c0-2.637-1.161-3.639-3.006-3.639c-1.847,0-3.006,1.002-3.006,3.639V36.192z"/>
	<path fill="#C4C4C4" d="M82.908,17.944v26.742h-5.222V7.763h7.279l5.96,22.1v-22.1h5.168v36.924h-5.96L82.908,17.944z"/>
	<path fill="#C4C4C4" d="M106.066,24.167h7.49v5.275h-7.49v15.244h-5.802V7.763h15.349v5.275h-9.547V24.167z"/>
	<path fill="#C4C4C4" d="M124.213,23.323h7.965v5.273h-7.965v10.813h10.021v5.277h-15.824V7.763h15.824v5.275h-10.021V23.323z"/>
	<path fill="#C4C4C4" d="M145.631,7.343c5.644,0,8.545,3.375,8.545,9.283v1.16h-5.486v-1.531c0-2.637-1.055-3.639-2.9-3.639
		c-1.846,0-2.901,1.002-2.901,3.639c0,7.596,11.34,9.021,11.34,19.568c0,5.908-2.954,9.283-8.65,9.283
		c-5.697,0-8.65-3.375-8.65-9.283v-2.268h5.486v2.637c0,2.637,1.161,3.586,3.006,3.586c1.847,0,3.007-0.949,3.007-3.586
		c0-7.596-11.34-9.02-11.34-19.566C137.086,10.718,139.987,7.343,145.631,7.343z"/>
	<path fill="#C4C4C4" d="M165.359,7.343c5.644,0,8.545,3.375,8.545,9.283v1.16h-5.485v-1.531c0-2.637-1.055-3.639-2.901-3.639
		c-1.846,0-2.901,1.002-2.901,3.639c0,7.596,11.341,9.021,11.341,19.568c0,5.908-2.954,9.283-8.65,9.283
		c-5.695,0-8.649-3.375-8.649-9.283v-2.268h5.484v2.637c0,2.637,1.161,3.586,3.008,3.586c1.845,0,3.005-0.949,3.005-3.586
		c0-7.596-11.339-9.02-11.339-19.566C156.815,10.718,159.716,7.343,165.359,7.343z"/>
	<path fill="#C4C4C4" d="M177.283,7.763h5.802v36.924h-5.802V7.763z"/>
	<path fill="#C4C4C4" d="M186.83,16.626c0-5.908,3.113-9.283,8.809-9.283c5.696,0,8.81,3.375,8.81,9.283v19.197
		c0,5.908-3.113,9.283-8.81,9.283c-5.695,0-8.809-3.375-8.809-9.283V16.626z M192.633,36.192c0,2.637,1.161,3.641,3.006,3.641
		c1.847,0,3.008-1.004,3.008-3.641V16.255c0-2.637-1.161-3.639-3.008-3.639c-1.845,0-3.006,1.002-3.006,3.639V36.192z"/>
	<path fill="#C4C4C4" d="M213.365,17.944v26.742h-5.223V7.763h7.279l5.961,22.1v-22.1h5.169v36.924h-5.961L213.365,17.944z"/>
	<path fill="#C4C4C4" d="M238.527,7.343c5.644,0,8.545,3.375,8.545,9.283v1.16h-5.486v-1.531c0-2.637-1.054-3.639-2.9-3.639
		c-1.846,0-2.901,1.002-2.901,3.639c0,7.596,11.34,9.021,11.34,19.568c0,5.908-2.953,9.283-8.65,9.283
		c-5.694,0-8.649-3.375-8.649-9.283v-2.268h5.485v2.637c0,2.637,1.161,3.586,3.008,3.586c1.845,0,3.005-0.949,3.005-3.586
		c0-7.596-11.339-9.02-11.339-19.566C229.983,10.718,232.883,7.343,238.527,7.343z"/>
</g>
<g>
	<path fill="#C4C4C4" d="M255.729,21.597c0-2.85,1.501-4.477,4.247-4.477c2.747,0,4.247,1.627,4.247,4.477v9.256
		c0,2.85-1.5,4.477-4.247,4.477c-2.746,0-4.247-1.627-4.247-4.477V21.597z M258.527,31.03c0,1.271,0.56,1.756,1.449,1.756
		s1.449-0.484,1.449-1.756v-9.611c0-1.273-0.56-1.756-1.449-1.756s-1.449,0.482-1.449,1.756V31.03z"/>
	<path fill="#C4C4C4" d="M268.828,25.233h3.611v2.543h-3.611v7.35h-2.797V17.323h7.399v2.543h-4.603V25.233z"/>
</g>
<path fill="#C4C4C4" d="M287.483,35.126h-2.823l-0.483-3.23h-3.434l-0.482,3.23h-2.568l2.848-17.803h4.094L287.483,35.126z
	 M281.099,29.479h2.696l-1.349-9.002L281.099,29.479z"/>
<g>
	<path fill="#FF85BD" d="M82.688,70.669c0.548-1.129,1.052-2.447,0.564-3.697c-0.273-0.696,0.439-1.159,1.065-1.064
		c0.619,0.154,0.774,0.889,0.818,1.432c0.118,1.444-0.587,2.777-1.347,3.957c-0.377,0.586-1.009,1.413-0.062,1.879
		c0.499,0.245,1.051,0.102,1.513-0.145c1.368-0.729,2.45-2.016,3.425-3.187c0.064-0.077,1.165-1.421,1.165-0.679
		c0,0.395-0.45,0.866-0.668,1.15c-1.002,1.309-5.147,6.274-6.765,2.9c-1.652,1.73-3.851,3.76-6.48,2.811
		c-2.369-0.856-2.398-3.695-1.778-5.735c0.758-2.499,2.582-4.901,4.789-6.302c1.423-0.902,5.27-1.607,4.774,1.252
		c-0.258,1.491-0.688-0.399-0.812-0.567c-0.506-0.683-1.728-0.036-2.229,0.3c-2.094,1.399-3.899,3.855-4.677,6.24
		c-0.624,1.91-0.438,5.259,2.452,4.068c1.24-0.51,2.272-1.571,3.056-2.632C81.878,72.124,81.286,70.237,82.688,70.669
		C83.189,69.638,82.326,70.558,82.688,70.669z"/>
	<path fill="#FF85BD" d="M100.353,63.401c2.578,0-1.553,6.947-1.903,8.099c-0.278,0.914-0.831,3.312,0.599,3.592
		c1.379,0.271,3.272-1.811,4.166-2.608c0.46-0.41,3.132-3.678,3.508-3.506c0.797,0.356-2.463,3.7-2.827,4.064
		c-1.25,1.251-2.75,2.683-4.541,3.052c-1.913,0.395-3.513-0.472-3.417-2.54c0.084-1.816,0.804-3.479,1.581-5.097
		c0.24-0.499,1.961-3.361,0.167-2.453c-2.847,1.442-4.793,4.728-6.659,7.171c-0.599,0.785-1.186,1.731-1.94,2.383
		c-0.407,0.352-1.237,0.65-1.772,0.77c-0.777,0.174-0.446-0.468-0.295-0.888c1.107-3.089,2.141-6.209,3.292-9.282
		c0.413-1.104,0.346-2.522,1.909-2.331c1.435,0.175,0.804,1.127,0.395,2.068c-0.929,2.138-1.712,4.347-2.533,6.526
		c1.534-1.872,3.19-3.657,4.904-5.366C96.32,65.722,98.287,63.401,100.353,63.401C100.994,63.401,99.686,63.401,100.353,63.401z"/>
	<path fill="#FF85BD" d="M112.464,63.569c1.133-0.104,2.267-0.212,3.402-0.274c0.574-0.032,1.846,0.142,0.639,0.577
		c-0.789,0.285-1.646,0.381-2.472,0.493c-0.735,0.102-1.473,0.189-2.211,0.272c-0.764,0.086-0.873,0.669-1.257,1.305
		c-1.111,1.839-2.089,3.981-2.743,6.033c-0.215,0.676-0.359,1.491-0.208,2.191c0.327,1.516,1.866,0.8,2.696,0.221
		c1.089-0.759,2.095-1.659,3.047-2.58c0.404-0.392,2.377-3.035,2.823-2.811c0.775,0.362-3.224,4.387-3.535,4.679
		c-1.409,1.324-4.066,3.471-6.122,2.233c-2.173-1.309-0.433-4.779,0.302-6.41c-0.352,0.772-1.081,1.459-1.629,2.088
		c-0.282,0.314-0.626,0.206-0.626-0.23c0-0.481,0.854-1.218,1.135-1.578c1.213-1.559,2.236-3.099,3.167-4.83
		c-0.469,0.092-1.569,0.274-1.619-0.486c-0.031-0.475,0.386-0.741,0.772-0.872c0.996-0.338,1.504,0.016,2.007-0.92
		c0.811-1.507,1.617-3.016,2.451-4.509c0.476-0.871,1.516-1.661,2.515-0.849c1.21,0.984-0.729,2.095-1.074,2.79
		c-0.797,1.038-1.354,2.369-2.004,3.508C112.094,63.598,112.3,63.619,112.464,63.569C114.608,63.374,112.464,63.569,112.464,63.569z
		"/>
	<path fill="#FF85BD" d="M124.868,63.108c1.375,0,2.255,0.771,2.255,2.172c0,1.704-1.495,3.03-2.83,3.876
		c-1.425,0.901-3.13,1.667-4.814,1.894c-0.575,0.077-1.362-0.549-0.625-0.549c0.872-0.077,1.711-0.5,2.464-0.918
		c1.494-0.805,3.008-1.762,4.093-3.092c0.316-0.437,0.869-1.449,0.375-1.957c-0.541-0.557-1.793,0.189-2.292,0.45
		c-2.893,1.509-6.466,4.938-6.831,8.361c-0.48,4.513,6.679,0.957,8.217-0.074c1.398-0.938,2.638-2.104,3.641-3.458
		c0.168-0.228,0.417-0.806,0.721-0.889c0.366-0.101,0.409,0.377,0.261,0.574c-0.532,0.887-1.159,1.716-1.865,2.472
		c-2.466,2.639-6.068,4.925-9.826,4.323c-3.935-0.63-3.969-4.571-1.957-7.293c1.179-1.596,2.785-2.871,4.417-3.974
		C121.592,64.136,123.212,63.108,124.868,63.108C126.371,63.108,123.531,63.108,124.868,63.108z"/>
	<g>
		<path fill="#FF85BD" d="M155.403,67.2c-0.138,0.33-0.255,0.423-0.157,0.729C155.281,68.019,155.439,67.112,155.403,67.2
			C155.341,67.349,155.439,67.112,155.403,67.2z"/>
		<path fill="#FF85BD" d="M154.476,67.81c-0.719,1.072-1.575,1.852-2.66,2.541c-0.54,0.344-1.095,0.665-1.666,0.954
			c-0.656,0.332-1.051-0.587-1.642-1.021c-1.234-0.908-4.785-1.753-4.003-3.827c0.874-2.318,3.879-3.877,6.053-4.622
			c0.685-0.235,2.497-0.898,3.062-0.123c0.731,1.005-1.064,1.743-0.814,2.483c0.396,0.6,1.538-0.904,1.691-1.252
			c0.425-0.962,0.441-1.902-0.539-2.51c-1.624-1.006-4.18-0.23-5.76,0.467c-2.153,0.951-4.396,2.351-5.099,4.725
			c-0.756,2.554-1.896,4.163-4.343,5.295c-0.459,0.213-0.925,0.412-1.393,0.605c-0.253-0.511-0.768-0.911-1.216-1.241
			c-0.743-0.548-1.621-0.935-2.425-1.381c-0.611-0.339-1.464-0.701-1.674-1.435c-0.281-0.985,0.647-1.994,1.258-2.644
			c1.489-1.579,3.607-2.713,5.705-3.232c0.587-0.146,2.192-0.567,2.357,0.385c0.141,0.817-1.116,1.658-0.924,2.218
			c0.578,0.884,1.902-1.737,1.969-2.124c0.183-1.048-0.723-1.757-1.659-1.948c-2.616-0.533-5.482,0.782-7.557,2.269
			c-0.946,0.678-1.833,1.538-2.275,2.638c-0.404,1.007-0.624,1.957-1.192,2.918c-0.314,0.531-0.657,1.047-1.013,1.552
			c-0.209,0.199-0.342,0.438-0.396,0.716c0.035,0.429,0.51,0.271,0.679,0.078c0.649-0.943,1.301-1.892,1.879-2.881
			c0.53,1.365,2.205,1.831,3.314,2.562c0.472,0.311,1.07,0.737,1.212,1.324c0.281,1.157-0.681,1.241-1.54,1.558
			c-1.625,0.599-3.429,1.081-4.922,1.975c-0.886,0.53-2.716,2.569-0.671,3.022c1.613,0.357,3.787-0.504,5.219-1.183
			c1.439-0.683,2.901-1.745,3.653-3.188c0.174-0.334,0.301-0.697,0.332-1.075c0.045-0.551,0.377-0.479,0.876-0.67
			c0.824-0.315,1.683-0.627,2.435-1.097c0.663-0.414,1.235-0.962,1.671-1.611c0.162-0.24,0.91-1.284,0.78-1.616
			c0.53,1.364,2.205,1.831,3.314,2.562c0.472,0.311,1.07,0.737,1.213,1.324c0.285,1.172-0.691,1.255-1.561,1.571
			c-1.786,0.651-3.857,1.171-5.409,2.305c-1.462,1.069-1.374,2.829,0.698,2.707c2.907-0.171,6.885-1.78,8.131-4.641
			c0.133-0.307,0.221-0.635,0.229-0.971c0.012-0.538,0.491-0.531,0.958-0.741c0.858-0.387,1.781-0.732,2.55-1.286
			c1.017-0.732,1.924-2.051,1.725-3.301C154.874,67.223,154.669,67.513,154.476,67.81C153.957,68.583,154.673,67.515,154.476,67.81z
			 M133.741,74.782c-0.895,0.851-1.924,1.585-3.089,2.017c-0.696,0.258-2.631,0.38-1.878-0.917c0.545-0.938,1.576-1.236,2.524-1.605
			c1.254-0.488,2.535-0.91,3.804-1.357C134.826,73.546,134.387,74.167,133.741,74.782C132.614,75.853,134.387,74.167,133.741,74.782
			z M142.615,76.933c-1.771,0.532-1.954-1.027-0.688-1.893c1.542-1.064,3.783-1.502,5.536-2.121
			C146.632,74.805,144.557,76.347,142.615,76.933C142.336,77.017,143.813,76.571,142.615,76.933z"/>
	</g>
	<path fill="#FF85BD" d="M161.909,70.669c0.548-1.127,1.053-2.449,0.564-3.697c-0.273-0.696,0.44-1.158,1.065-1.064
		c0.619,0.154,0.773,0.89,0.818,1.432c0.118,1.444-0.587,2.777-1.346,3.957c-0.377,0.586-1.009,1.413-0.062,1.879
		c0.499,0.244,1.051,0.102,1.513-0.145c1.368-0.729,2.45-2.016,3.424-3.187c0.064-0.077,1.164-1.421,1.164-0.679
		c0,0.395-0.449,0.866-0.667,1.15c-1.004,1.313-5.145,6.271-6.766,2.9c-1.651,1.731-3.852,3.76-6.479,2.811
		c-2.369-0.856-2.396-3.695-1.777-5.735c0.758-2.499,2.581-4.901,4.789-6.302c1.422-0.902,5.271-1.607,4.774,1.252
		c-0.259,1.49-0.688-0.398-0.813-0.567c-0.505-0.683-1.728-0.036-2.229,0.3c-2.095,1.399-3.898,3.854-4.678,6.24
		c-0.624,1.91-0.437,5.259,2.452,4.068c1.24-0.51,2.273-1.571,3.057-2.632C161.099,72.125,160.507,70.237,161.909,70.669
		C162.411,69.638,161.547,70.558,161.909,70.669z"/>
	<path fill="#FF85BD" d="M173.436,76.306c-3.54,0-1.787-4.683-0.665-6.287c0.875-1.251,2.049-2.244,2.92-3.484
		c1.035-1.406,0.073-1.946-1.427-2.191c-1.144-0.188-1.414-0.264-2.101,0.704c-0.516,0.727-1.031,1.453-1.549,2.179
		c-0.632,0.885-1.262,1.772-1.907,2.648c-0.233,0.316-0.464,0.663-0.774,0.908c-0.166,0.132-0.511,0.202-0.511-0.197
		c0-0.315,0.404-0.689,0.569-0.897c1.359-1.713,2.557-3.554,3.565-5.493c-2.666-0.436,2.109-5.01,3.799-5.01
		c0.599,0-1.755,3.764-1.962,4.092c1.486,0.1,2.962,0.132,4.449,0.091c0.411-0.012,1.189-0.082,1.439,0.336
		c0.315,0.527-0.583,1.54-0.865,1.902c-1.315,1.692-2.637,3.272-3.598,5.209c-0.344,0.693-2.129,4.323-0.173,4.323
		c1.188,0,2.672-1.613,3.469-2.32c0.847-0.752,1.666-1.534,2.408-2.391c0.063-0.072,1.682-2.146,1.682-1.24
		c0,0.516-0.791,1.304-1.088,1.675c-0.716,0.893-1.5,1.739-2.327,2.53C177.318,74.8,175.586,76.306,173.436,76.306
		C172.016,76.306,174.604,76.306,173.436,76.306z"/>
	<path fill="#FF85BD" d="M185.087,63.692c2.476,0,0.392,2.959-0.12,4.01c-0.729,1.495-1.549,3.049-1.963,4.672
		c-0.403,1.582,0.181,3.493,2.1,2.342c1.821-1.093,3.473-2.702,4.869-4.285c0.074-0.084,1.67-2.111,1.67-1.244
		c0,0.617-1.001,1.577-1.364,2.011c-1.332,1.589-2.861,3.264-4.688,4.294c-1.419,0.799-3.729,1.288-4.586-0.522
		c-0.774-1.636,0.456-4.003,1.117-5.47c-0.299,0.656-1.227,1.997-1.86,2.274c-0.496,0.216-0.36-0.604-0.228-0.772
		c0.526-0.654,1.045-1.314,1.553-1.983c0.348-0.458,0.689-0.921,1.023-1.391c0.373-0.524,0.463-0.951,0.723-1.47
		C183.616,65.362,184.027,63.692,185.087,63.692C185.782,63.692,184.975,63.692,185.087,63.692z M188.385,58.14
		c-0.343,1.376-1.194,4.717-3.254,3.04c-0.796-0.647,0.753-1.466,1.166-1.788C186.528,59.212,188.385,57.728,188.385,58.14
		C188.385,58.14,188.385,58.028,188.385,58.14z"/>
	<path fill="#FF85BD" d="M212.065,75.388c-3.501,0.673-7.588,0.037-9.759-3.08c-1.961-2.815-1.356-6.861-0.05-9.821
		c2.999-6.798,10.289-11.01,17.475-11.729c2.498-0.25,8.457-0.612,8.852,3.011c0.036,0.326-0.186,1.735-0.815,1.061
		c-0.33-0.353-0.216-1.166-0.436-1.62c-0.632-1.303-2.242-1.608-3.549-1.66c-3.836-0.152-7.785,1.81-10.991,3.717
		c-3.467,2.063-6.875,4.552-9.059,8.011c-1.262,1.997-2.14,4.682-1.3,7.011c0.789,2.19,3.183,3.229,5.366,3.335
		c5.206,0.256,10.378-1.755,14.288-5.113c1.046-0.898,2.057-1.838,3.041-2.805c0.749-0.737,0.985-1.805,1.838-2.508
		c0.747-0.616,1.682-0.887,2.64-0.918c0.187-0.006,2.516,0.006,2.109,0.599c-0.203,0.297-1.384,0.257-1.758,0.473
		c-0.847,0.488-1.411,1.375-1.836,2.227c-1.211,2.427-1.867,5.185-2.818,7.724c1.067-0.242,2.242-0.593,3.35-0.483
		c0.263,0.026,1.225,0.418,0.492,0.661c-0.334,0.11-0.887-0.113-1.278-0.055c-0.902,0.135-2.728,0.324-3.107,1.338
		c-0.656,1.66-1.38,3.294-2.198,4.881c-2.323,4.511-6.199,10.436-11.588,11.542c-2.781,0.57-4.972-1.143-4.399-4.014
		c0.573-2.877,3.01-5.286,5.147-7.135c2.305-1.994,4.947-3.569,7.739-4.78c0.716-0.311,1.442-0.598,2.177-0.863
		c0.301-0.108,0.604-0.214,0.907-0.315c0.654-0.219,0.589-0.536,0.791-1.165c0.592-1.838,1.151-3.686,1.675-5.543
		C221.438,70.741,217.074,74.508,212.065,75.388C211.201,75.554,215.711,74.747,212.065,75.388z M208.724,87.622
		c0,1.887,1.354,2.875,3.146,2.433c1.882-0.464,3.367-2.052,4.515-3.521c2.765-3.542,4.814-7.596,6.329-11.813
		c-3.166,1.03-6.172,2.584-8.706,4.759C211.763,81.405,208.724,84.441,208.724,87.622C208.724,87.929,208.724,86.147,208.724,87.622
		z"/>
	<path fill="#FF85BD" d="M250.402,72.296c-1.766,1.902-3.78,3.926-6.557,3.926c-3.212,0-1.796-5.376-1.17-6.975
		c-0.908,0.642-1.473,2.356-2.148,3.242c-1.076,1.409-2.544,3.232-4.491,3.232c-4.533,0-3.39-5.237-1.878-7.772
		c0.584-0.979,1.345-2.515,2.336-3.167c0.499-0.329,1.488-0.255,2.036-0.109c1.284,0.341,0.05,1.038-0.474,1.567
		c-1.261,1.275-2.329,2.747-3.069,4.385c-0.492,1.087-1.75,4.261,0.506,4.261c2.713,0,5.275-4.075,6.632-5.965
		c0.956-1.33,1.777-2.716,2.595-4.134c0.311-0.539,0.618-1.08,0.939-1.613c0.248-0.41,1.983,0.234,2.231,0.566
		c0.412,0.554-1.876,3.654-2.251,4.333c-0.837,1.516-1.432,3.04-1.669,4.768c-0.184,1.612,0.559,2.874,2.255,1.851
		c1.559-0.94,2.969-2.271,4.215-3.584c0.412-0.434,0.807-0.885,1.176-1.355c0-0.001,1.125-1.431,1.125-0.565
		C252.741,70.14,250.984,71.67,250.402,72.296C249.316,73.466,251.488,71.128,250.402,72.296z"/>
	<path fill="#FF85BD" d="M255.623,63.692c2.476,0,0.392,2.959-0.12,4.01c-0.73,1.495-1.55,3.049-1.964,4.672
		c-0.403,1.582,0.182,3.493,2.101,2.342c1.821-1.093,3.472-2.702,4.869-4.285c0.073-0.084,1.67-2.111,1.67-1.244
		c0,0.616-1.001,1.577-1.364,2.011c-1.332,1.59-2.862,3.264-4.689,4.294c-1.419,0.8-3.729,1.288-4.586-0.522
		c-0.774-1.635,0.457-4.004,1.117-5.47c-0.299,0.656-1.226,1.997-1.86,2.274c-0.494,0.216-0.36-0.604-0.228-0.772
		c0.526-0.654,1.046-1.314,1.554-1.983c0.348-0.458,0.689-0.921,1.023-1.391c0.373-0.524,0.463-0.951,0.723-1.47
		C254.152,65.361,254.563,63.692,255.623,63.692C256.318,63.692,255.511,63.692,255.623,63.692z M258.921,58.14
		c-0.343,1.375-1.195,4.718-3.255,3.04c-0.794-0.647,0.753-1.466,1.166-1.788C257.063,59.212,258.921,57.729,258.921,58.14
		C258.921,58.14,258.921,58.028,258.921,58.14z"/>
	<path fill="#FF85BD" d="M262.909,67.642c2.528-2.247,7.977-6.439,11.465-3.822c1.454-3.377,3.084-6.806,5.384-9.7
		c1.275-1.604,2.997-3.351,5.154-3.562c1.223-0.119,2.723,0.227,3.044,1.596c0.358,1.531-1.134,3.489-2.01,4.604
		c-2.284,2.902-5.305,5.198-8.162,7.499c-0.873,0.704-1.753,1.4-2.61,2.122c-0.471,0.396-0.682,1.426-0.899,1.995
		c-0.401,1.052-0.764,2.118-1.076,3.199c-0.459,1.588-0.917,3.261-0.99,4.922c-0.058,1.325,0.512,4.219,2.416,2.833
		c0.104-0.075,1.188-0.956,1.138-0.4c-0.074,0.812-1.153,1.347-1.852,1.442c-1.333,0.182-2.889-0.037-3.406-1.461
		c-0.569-1.565-0.176-3.674,0.205-5.243c0.469-1.937,1.186-3.857,1.91-5.713c-2.27,2.639-5.064,6.313-8.471,7.565
		c-1.633,0.6-3.605-0.439-4.172-2.077C259.226,71.271,261.449,68.936,262.909,67.642C264.148,66.54,261.671,68.739,262.909,67.642z
		 M274.039,64.487c-2.664-1.34-6.438,1.421-8.336,3.005c-1.391,1.161-5.374,5.133-3.78,7.235c1.21,1.598,6.082-3.527,6.888-4.259
		C270.773,68.688,273.021,66.965,274.039,64.487C273.705,64.319,274.039,64.487,274.039,64.487z M286.275,53.964
		c0.566-1.048,0.903-3.092-0.932-2.11c-1.289,0.689-2.406,1.87-3.365,2.953c-2.41,2.721-4.194,5.966-5.684,9.263
		C280.135,61.587,284.099,58.04,286.275,53.964C286.638,53.294,285.384,55.634,286.275,53.964z"/>
	<path fill="#FF85BD" d="M75.066,68.956c-0.396-0.351-9.441,11.536-9.204,3.017c0.142-5.063,2.874-9.519,4.263-14.272
		c0.506-1.73,0.937-5.004-1.873-4.676c-2.605,0.304-4.611,3.569-6.094,5.456c-1.964,2.498-3.763,5.126-5.442,7.823
		c-0.173,0.278-3.188,5.807-3.575,5.68c0.075,0.024,2.086-7.621,2.235-8.46c0.463-2.616,0.65-5.573-0.929-7.877
		c-1.224-1.786-3.997-2.329-5.983-1.685c-2.665,0.863-5.024,2.948-7.121,4.721c0.823-2.04,1.646-4.08,2.469-6.121
		c0.488-1.21,0.451-1.647-1.241-1.534c-1.102,0.073-1.159,0.836-1.656,1.684c-0.675,1.152-1.567,2.205-2.607,3.046
		c-1.963,1.588-4.341,1.784-6.774,1.836c-2.633,0.055-5.292-0.022-7.9-0.414c-2.423-0.363-4.776-1.091-6.954-2.221
		c-1.053-0.547-2.06-1.184-3.001-1.906c-0.515-0.396-2.005-2.088-2.441-1.975c3.454,3.843,8.307,6.005,13.37,6.685
		c2.727,0.366,5.505,0.468,8.253,0.375c2.612-0.089,5.451-0.56,7.438-2.419c-0.477,1.62-0.955,3.239-1.432,4.859
		c-0.274,0.932-1.165,1.467-1.848,2.139c-1.517,1.488-2.982,3.029-4.425,4.59c-1.267,1.369-2.502,2.771-3.651,4.243
		c-1.026,1.314-2.247,2.783-2.594,4.452c-0.727,3.5,2.967,3.321,4.884,1.727c2.706-2.249,4.286-5.771,5.795-8.866
		c0.847-1.735,1.659-3.486,2.408-5.267c0.232-0.553,0.463-1.106,0.668-1.67c0.297-0.814,1.707-1.668,2.371-2.234
		c2.036-1.738,4.355-3.819,6.97-4.629c2.242-0.693,3.37,1.086,3.776,3.07c0.695,3.398,0.256,7.128-0.443,10.488
		c-0.207,0.994-0.467,1.979-0.783,2.943c-0.241,0.735-0.766,1.508-0.38,2.267c1.023,2.017,1.71-0.036,2.302-1.133
		c1.73-3.205,3.761-6.272,5.862-9.244c1.91-2.7,4.125-6.003,6.955-7.841c1.653-1.072,1.623,0.994,1.216,2.045
		c-0.517,1.334-1.077,2.651-1.594,3.985c-1.227,3.165-2.476,6.686-2.581,10.103c-0.092,2.987,1.304,5.41,4.61,4.103
		C69.617,75.361,76.109,69.881,75.066,68.956C74.941,68.845,75.192,69.067,75.066,68.956z M34.871,70.292
		c-1.106,2.127-2.327,4.402-4.089,6.068c-0.917,0.867-3.625,2.089-2.979-0.426c0.533-2.074,2.512-3.956,3.874-5.535
		c1.976-2.289,4-4.547,6.202-6.623C37.265,65.448,36.262,67.62,34.871,70.292C32.365,75.108,36.262,67.62,34.871,70.292z"/>
	<path fill="#FF85BD" d="M309.126,60.956c-6.028,6.037-14.313,10.036-22.221,12.975c-1.952,0.726-9.688,3.758-8.681-1.022
		c0.704-3.344,4.081-6.677,7.09-8.087c0.451-0.226,1.493-0.771,1.963-0.287c0.493,0.508-0.06,1.521-0.375,1.957
		c-1.179,1.445-2.869,2.478-4.511,3.314c-0.635,0.324-1.328,0.632-2.046,0.695c-0.737,0,0.05,0.626,0.625,0.549
		c1.808-0.242,3.675-1.095,5.164-2.126c1.209-0.836,2.479-2.077,2.479-3.644c0-1.514-1.051-2.271-2.511-2.162
		c-3.147,0.235-6.653,3.234-8.524,5.58c-2.013,2.522-2.553,6.445,1.254,7.525c1.764,0.501,3.669-0.049,5.356-0.586
		c1.979-0.629,3.917-1.377,5.821-2.203c3.658-1.587,7.217-3.432,10.599-5.546c1.7-1.063,3.358-2.199,4.938-3.437
		C306.027,64.076,309.494,61.194,309.126,60.956C307.248,62.837,309.126,60.956,309.126,60.956z"/>
</g>
<g>
	<path fill="#C4C4C4" d="M250.846,13.44c6.639-0.178,13.225-0.842,19.871-0.719c7.238,0.135,14.42,0.805,21.667,0.719
		c0.623-0.008,2.089-0.963,0.791-0.947c-7.24,0.086-14.436-0.516-21.667-0.719c-6.642-0.189-13.238,0.539-19.871,0.719
		C251.018,12.509,249.55,13.476,250.846,13.44L250.846,13.44z"/>
</g>
<g>
	<path fill="#C4C4C4" d="M250.842,40.598c8.146-0.346,16.228,0.294,24.362,0.572c5.791,0.199,11.402-0.767,17.172-1.037
		c0.614-0.028,2.084-1.008,0.791-0.947c-5.762,0.269-11.392,1.172-17.172,1.037c-8.151-0.191-16.199-0.919-24.362-0.572
		C251.018,39.676,249.548,40.653,250.842,40.598L250.842,40.598z"/>
</g>
</svg>
